<svg id="visual" viewBox="0 0 900 150" width="900" height="150" xmlns="http://www.w3.org/2000/svg" xmlns:xlink="http://www.w3.org/1999/xlink" version="1.1"><rect x="0" y="0" width="900" height="150" fill="#9B0300"></rect><path d="M0 63L7.8 63.7C15.7 64.3 31.3 65.7 47.2 69C63 72.3 79 77.7 94.8 80.3C110.7 83 126.3 83 142 79.7C157.7 76.3 173.3 69.7 189.2 71.2C205 72.7 221 82.3 236.8 83C252.7 83.7 268.3 75.3 284.2 75.5C300 75.7 316 84.3 331.8 88C347.7 91.7 363.3 90.3 379 88.7C394.7 87 410.3 85 426.2 85.5C442 86 458 89 473.8 90.5C489.7 92 505.3 92 521 90.7C536.7 89.3 552.3 86.7 568.2 85.8C584 85 600 86 615.8 84C631.7 82 647.3 77 663.2 76.2C679 75.3 695 78.7 710.8 81.8C726.7 85 742.3 88 758 87C773.7 86 789.3 81 805.2 76.3C821 71.7 837 67.3 852.8 69C868.7 70.7 884.3 78.3 892.2 82.2L900 86L900 151L892.2 151C884.3 151 868.7 151 852.8 151C837 151 821 151 805.2 151C789.3 151 773.7 151 758 151C742.3 151 726.7 151 710.8 151C695 151 679 151 663.2 151C647.3 151 631.7 151 615.8 151C600 151 584 151 568.2 151C552.3 151 536.7 151 521 151C505.3 151 489.7 151 473.8 151C458 151 442 151 426.2 151C410.3 151 394.7 151 379 151C363.3 151 347.7 151 331.8 151C316 151 300 151 284.2 151C268.3 151 252.7 151 236.8 151C221 151 205 151 189.2 151C173.3 151 157.7 151 142 151C126.3 151 110.7 151 94.8 151C79 151 63 151 47.2 151C31.3 151 15.7 151 7.8 151L0 151Z" fill="#3de5fc"></path><path d="M0 87L7.8 85.5C15.7 84 31.3 81 47.2 80C63 79 79 80 94.8 82.8C110.7 85.7 126.3 90.3 142 90.2C157.7 90 173.3 85 189.2 86.3C205 87.7 221 95.3 236.8 95.5C252.7 95.7 268.3 88.3 284.2 86.3C300 84.3 316 87.7 331.8 89.7C347.7 91.7 363.3 92.3 379 94.3C394.7 96.3 410.3 99.7 426.2 98.5C442 97.3 458 91.7 473.8 92C489.7 92.3 505.3 98.7 521 97.3C536.7 96 552.3 87 568.2 86.2C584 85.3 600 92.7 615.8 93.8C631.7 95 647.3 90 663.2 89.3C679 88.7 695 92.3 710.8 95.2C726.7 98 742.3 100 758 99.8C773.7 99.7 789.3 97.3 805.2 96.5C821 95.7 837 96.3 852.8 98.2C868.7 100 884.3 103 892.2 104.5L900 106L900 151L892.2 151C884.3 151 868.7 151 852.8 151C837 151 821 151 805.2 151C789.3 151 773.7 151 758 151C742.3 151 726.7 151 710.8 151C695 151 679 151 663.2 151C647.3 151 631.7 151 615.8 151C600 151 584 151 568.2 151C552.3 151 536.7 151 521 151C505.3 151 489.7 151 473.8 151C458 151 442 151 426.2 151C410.3 151 394.7 151 379 151C363.3 151 347.7 151 331.8 151C316 151 300 151 284.2 151C268.3 151 252.7 151 236.8 151C221 151 205 151 189.2 151C173.3 151 157.7 151 142 151C126.3 151 110.7 151 94.8 151C79 151 63 151 47.2 151C31.3 151 15.7 151 7.8 151L0 151Z" fill="#2ecede"></path><path d="M0 112L7.8 111.5C15.7 111 31.3 110 47.2 106.8C63 103.7 79 98.3 94.8 98.7C110.7 99 126.3 105 142 107.7C157.7 110.3 173.3 109.7 189.2 107.5C205 105.3 221 101.7 236.8 100.8C252.7 100 268.3 102 284.2 101.7C300 101.3 316 98.7 331.8 100C347.7 101.3 363.3 106.7 379 108.3C394.7 110 410.3 108 426.2 104.8C442 101.7 458 97.3 473.8 96.2C489.7 95 505.3 97 521 98C536.7 99 552.3 99 568.2 99.2C584 99.3 600 99.7 615.8 99.7C631.7 99.7 647.3 99.3 663.2 99.2C679 99 695 99 710.8 100.7C726.7 102.3 742.3 105.7 758 106.7C773.7 107.7 789.3 106.3 805.2 107C821 107.7 837 110.3 852.8 110.8C868.7 111.3 884.3 109.7 892.2 108.8L900 108L900 151L892.2 151C884.3 151 868.7 151 852.8 151C837 151 821 151 805.2 151C789.3 151 773.7 151 758 151C742.3 151 726.7 151 710.8 151C695 151 679 151 663.2 151C647.3 151 631.7 151 615.8 151C600 151 584 151 568.2 151C552.3 151 536.7 151 521 151C505.3 151 489.7 151 473.8 151C458 151 442 151 426.2 151C410.3 151 394.7 151 379 151C363.3 151 347.7 151 331.8 151C316 151 300 151 284.2 151C268.3 151 252.7 151 236.8 151C221 151 205 151 189.2 151C173.3 151 157.7 151 142 151C126.3 151 110.7 151 94.8 151C79 151 63 151 47.2 151C31.3 151 15.7 151 7.8 151L0 151Z" fill="#21b7c1"></path><path d="M0 108L7.8 108C15.7 108 31.3 108 47.2 110C63 112 79 116 94.8 117.5C110.7 119 126.3 118 142 116.3C157.7 114.7 173.3 112.3 189.2 111.8C205 111.3 221 112.7 236.8 113.7C252.7 114.7 268.3 115.3 284.2 117.2C300 119 316 122 331.8 123.7C347.7 125.3 363.3 125.7 379 123.2C394.7 120.7 410.3 115.3 426.2 112.8C442 110.3 458 110.7 473.8 110.8C489.7 111 505.3 111 521 110.7C536.7 110.3 552.3 109.7 568.2 111C584 112.3 600 115.7 615.8 116.3C631.7 117 647.3 115 663.2 115.7C679 116.3 695 119.7 710.8 118.8C726.7 118 742.3 113 758 111.2C773.7 109.3 789.3 110.7 805.2 112.5C821 114.3 837 116.7 852.8 116.5C868.7 116.3 884.3 113.7 892.2 112.3L900 111L900 151L892.2 151C884.3 151 868.7 151 852.8 151C837 151 821 151 805.2 151C789.3 151 773.7 151 758 151C742.3 151 726.7 151 710.8 151C695 151 679 151 663.2 151C647.3 151 631.7 151 615.8 151C600 151 584 151 568.2 151C552.3 151 536.7 151 521 151C505.3 151 489.7 151 473.8 151C458 151 442 151 426.2 151C410.3 151 394.7 151 379 151C363.3 151 347.7 151 331.8 151C316 151 300 151 284.2 151C268.3 151 252.7 151 236.8 151C221 151 205 151 189.2 151C173.3 151 157.7 151 142 151C126.3 151 110.7 151 94.8 151C79 151 63 151 47.2 151C31.3 151 15.7 151 7.8 151L0 151Z" fill="#14a0a5"></path><path d="M0 128L7.8 128.5C15.7 129 31.3 130 47.2 130.7C63 131.3 79 131.7 94.8 130.7C110.7 129.7 126.3 127.3 142 126.5C157.7 125.7 173.3 126.3 189.2 127.5C205 128.7 221 130.3 236.8 132C252.7 133.7 268.3 135.3 284.2 135.3C300 135.3 316 133.7 331.8 131.8C347.7 130 363.3 128 379 127.5C394.7 127 410.3 128 426.2 129.5C442 131 458 133 473.8 132C489.7 131 505.3 127 521 127.7C536.7 128.3 552.3 133.7 568.2 135C584 136.3 600 133.7 615.8 132.7C631.7 131.7 647.3 132.3 663.2 131.2C679 130 695 127 710.8 127C726.7 127 742.3 130 758 132.2C773.7 134.3 789.3 135.7 805.2 135.8C821 136 837 135 852.8 133.7C868.7 132.3 884.3 130.7 892.2 129.8L900 129L900 151L892.2 151C884.3 151 868.7 151 852.8 151C837 151 821 151 805.2 151C789.3 151 773.7 151 758 151C742.3 151 726.7 151 710.8 151C695 151 679 151 663.2 151C647.3 151 631.7 151 615.8 151C600 151 584 151 568.2 151C552.3 151 536.7 151 521 151C505.3 151 489.7 151 473.8 151C458 151 442 151 426.2 151C410.3 151 394.7 151 379 151C363.3 151 347.7 151 331.8 151C316 151 300 151 284.2 151C268.3 151 252.7 151 236.8 151C221 151 205 151 189.2 151C173.3 151 157.7 151 142 151C126.3 151 110.7 151 94.8 151C79 151 63 151 47.2 151C31.3 151 15.7 151 7.8 151L0 151Z" fill="#068a8a"></path></svg>