<svg width="80" height="80" viewBox="0 0 80 80" fill="none" xmlns="http://www.w3.org/2000/svg">
<path d="M46.1848 34.0535C48.8732 35.6188 48.8243 39.519 46.0976 41.0164L21.3003 54.6337C18.6151 56.1082 15.3369 54.1406 15.3753 51.0774L15.7243 23.2258C15.7627 20.1626 19.0892 18.2777 21.7366 19.8191L46.1848 34.0535Z" fill="#F30404" fill-opacity="0.4"/>
<path d="M37.1848 34.0535C39.8732 35.6188 39.8243 39.519 37.0976 41.0164L12.3003 54.6337C9.61511 56.1082 6.33687 54.1406 6.37526 51.0774L6.72428 23.2258C6.76266 20.1626 10.0892 18.2777 12.7366 19.8191L37.1848 34.0535Z" fill="#001AFF" fill-opacity="0.48"/>
<path d="M56.1848 34.0535C58.8732 35.6188 58.8243 39.519 56.0976 41.0164L31.3003 54.6337C28.6151 56.1082 25.3369 54.1406 25.3753 51.0774L25.7243 23.2258C25.7627 20.1626 29.0892 18.2777 31.7366 19.8191L56.1848 34.0535Z" fill="#071BD3" fill-opacity="0.44"/>
</svg>
