<svg id="visual" viewBox="0 0 900 150" width="900" height="150" xmlns="http://www.w3.org/2000/svg" xmlns:xlink="http://www.w3.org/1999/xlink" version="1.1"><path d="M0 143L5 139.3C10 135.7 20 128.3 30 126.7C40 125 50 129 60 131.3C70 133.7 80 134.3 90 128.5C100 122.7 110 110.3 120 103.7C130 97 140 96 150 102C160 108 170 121 180 122.2C190 123.3 200 112.7 210 109.8C220 107 230 112 240 116.2C250 120.3 260 123.7 270 122C280 120.3 290 113.7 300 109.8C310 106 320 105 330 111C340 117 350 130 360 136.7C370 143.3 380 143.7 390 135.5C400 127.3 410 110.7 420 107.2C430 103.7 440 113.3 450 120.2C460 127 470 131 480 129.7C490 128.3 500 121.7 510 121.7C520 121.7 530 128.3 540 125.7C550 123 560 111 570 104.2C580 97.3 590 95.7 600 98.8C610 102 620 110 630 118.5C640 127 650 136 660 132.3C670 128.7 680 112.3 690 106.3C700 100.3 710 104.7 720 109.3C730 114 740 119 750 122.2C760 125.3 770 126.7 780 122.7C790 118.7 800 109.3 810 110.8C820 112.3 830 124.7 840 127.7C850 130.7 860 124.3 870 120.5C880 116.7 890 115.3 895 114.7L900 114L900 151L895 151C890 151 880 151 870 151C860 151 850 151 840 151C830 151 820 151 810 151C800 151 790 151 780 151C770 151 760 151 750 151C740 151 730 151 720 151C710 151 700 151 690 151C680 151 670 151 660 151C650 151 640 151 630 151C620 151 610 151 600 151C590 151 580 151 570 151C560 151 550 151 540 151C530 151 520 151 510 151C500 151 490 151 480 151C470 151 460 151 450 151C440 151 430 151 420 151C410 151 400 151 390 151C380 151 370 151 360 151C350 151 340 151 330 151C320 151 310 151 300 151C290 151 280 151 270 151C260 151 250 151 240 151C230 151 220 151 210 151C200 151 190 151 180 151C170 151 160 151 150 151C140 151 130 151 120 151C110 151 100 151 90 151C80 151 70 151 60 151C50 151 40 151 30 151C20 151 10 151 5 151L0 151Z" fill="#080263" stroke-linecap="round" stroke-linejoin="miter"></path></svg>